<svg width="97" height="40" viewBox="0 0 97 40" fill="none" xmlns="http://www.w3.org/2000/svg">
<g id="Layer_1" clip-path="url(#clip0_20_874)">
<path id="Vector" fill-rule="evenodd" clip-rule="evenodd" d="M48.7955 4.36351C49.4747 4.3997 50.0812 4.64786 50.5841 5.07696C51.2633 5.71804 51.4447 6.78822 51.1233 7.64644C49.8687 10.2159 46.8928 11.9323 44.8606 12.501C43.6422 12.7854 42.1076 12.7854 40.9982 12.3563C40.459 12.6768 40.008 13.716 39.3495 13.2817C38.4008 12.5424 39.2199 11.3843 38.6756 10.5623C38.5615 10.3917 38.2764 10.3813 38.1364 10.1022C37.3847 8.45812 38.3178 6.89162 39.3547 5.64049C41.0863 3.71726 46.0478 1.57173 48.8007 4.35834L48.7955 4.36351ZM43.0356 5.65083C42.0713 5.83178 40.9774 6.25055 40.3864 6.93298C39.7954 7.62059 39.4221 8.28751 39.7798 9.00097C41.0345 8.07554 41.641 6.78822 43.0356 6.00239C43.0356 5.85763 43.2482 5.75423 43.0356 5.64566V5.65083ZM48.8681 6.00756C46.4003 5.79559 44.5391 7.64644 42.7868 9.43524C42.6779 9.71959 42.0351 10.0401 42.5379 10.3607C44.902 10.5726 47.1521 9.89537 48.8733 8.32887C49.3762 7.86357 49.7339 7.25869 49.4798 6.61761C49.371 6.36946 49.1221 6.11613 48.8733 6.01273L48.8681 6.00756Z" fill="#231F20"/>
<path id="Vector_2" fill-rule="evenodd" clip-rule="evenodd" d="M70.2641 16.6421C71.4098 19.4236 72.3741 23.8129 70.2641 26.4909C69.6938 27.132 68.688 27.7265 68.0452 27.2405C65.6811 25.3483 64.6805 22.6393 63.2133 20.2094C63.0007 20.1008 63.0007 20.3903 62.8919 20.4937C62.3527 22.9546 63.3585 26.1652 61.6735 28.0936C61.0307 28.2022 60.4293 27.8713 60.2064 27.2354C59.382 24.7021 60.2426 22.0602 60.4552 19.527C60.9581 18.2448 61.1706 16.7455 62.2801 15.7787C64.0687 16.4922 64.9293 18.493 65.9662 19.9561C66.7179 21.0624 67.3245 22.3136 68.1851 23.3114C68.9369 22.9908 68.5688 22.0137 68.5429 21.4192C68.2577 19.0979 67.6149 16.9575 67.0031 14.7447C66.9668 14.176 66.6454 13.2093 67.2519 12.8525C68.8643 13.566 69.5434 15.2411 70.2589 16.637L70.2641 16.6421Z" fill="#231F20"/>
<path id="Vector_3" fill-rule="evenodd" clip-rule="evenodd" d="M59.4598 15.7838C59.4598 16.3215 59.0295 16.9884 58.6718 17.066C55.2345 17.6036 51.4084 17.2779 48.1889 18.3481C48.0801 18.741 48.5466 18.8134 48.7955 18.9168C51.5484 19.3459 54.4465 19.4545 57.132 20.1317C58.5525 20.4936 59.0658 22.1635 59.1695 23.5594C59.2369 24.6555 58.8117 25.9841 57.7386 26.7338C55.0894 28.4088 51.0455 28.3416 48.3652 26.8062C47.3387 26.2323 46.3588 25.3069 46.2914 24.1643C46.2966 23.2596 46.6855 22.5461 47.3283 22.1997C49.905 21.1657 53.0882 21.7344 55.3071 23.0579C55.4523 23.7714 54.6746 23.7352 54.3065 23.9834C51.8387 25.4103 49.9775 22.3755 47.686 23.4819C47.3646 23.6938 47.1313 24.2936 47.5098 24.4797C50.3353 25.7308 53.4874 24.8364 56.2766 24.0506C56.598 23.942 56.992 23.6215 57.0283 23.3009C56.9194 22.1584 55.6337 21.9102 54.8094 21.5897C52.3779 20.9848 49.6924 20.9848 47.0795 20.7315C46.5766 20.6229 45.9389 20.2765 45.7937 19.8732C45.5086 19.015 45.5086 17.8414 46.1515 17.128C49.4798 14.2018 54.5243 14.45 58.7443 15.2358C59.0295 15.3444 59.3509 15.4478 59.4598 15.7735V15.7838Z" fill="#231F20"/>
<path id="Vector_4" fill-rule="evenodd" clip-rule="evenodd" d="M43.8237 17.1384C44.1451 20.5661 44.3266 23.7404 44.254 27.3439C44.1814 27.8092 43.6474 27.9126 43.2897 28.0935C42.7194 28.2021 41.978 28.078 41.7499 27.773C40.9256 26.4546 41.2107 24.671 41.1433 23.0631C41.2522 20.5299 41.2159 17.7846 41.9314 15.4271C42.0662 15.0859 42.4705 14.786 42.792 14.998C43.6526 15.4271 43.7926 16.2802 43.8289 17.1384H43.8237Z" fill="#231F20"/>
<path id="Vector_5" fill-rule="evenodd" clip-rule="evenodd" d="M83.5776 16.6421C83.7487 16.9316 83.9302 17.3762 83.5776 17.5675C81.9653 18.281 79.7826 17.9605 77.9214 18.1724C77.4186 18.6015 77.0245 19.315 77.206 19.9561C77.3823 20.0646 77.5482 20.2249 77.7452 20.2042C78.8909 20.2766 80.607 19.6717 81.3587 20.7419C81.5453 21.0624 81.3328 22.2515 80.8247 22.2774C79.4301 22.4583 77.1334 22.1016 76.4594 22.4583C75.5988 23.027 75.6714 24.1334 75.35 25.0278C75.9566 25.4207 76.5942 25.0174 77.3201 24.9192C78.6421 24.7073 80.1093 24.3143 81.4365 24.5987C81.6853 25.064 82.043 25.5603 81.7942 26.1342C79.539 27.9178 76.6305 29.748 73.5303 28.4555C72.369 27.9333 71.8505 26.1704 72.2445 24.6711C72.4934 23.6009 73.6028 22.5669 72.9237 21.4243C72.8148 20.9228 73.1 20.4989 73.5303 20.3903C74.7123 20.3903 74.4583 18.9272 75.07 18.25C74.3909 17.5003 72.6748 17.5365 72.8511 16.0372C73.6754 15.6081 74.676 15.7529 75.604 15.6081C77.7141 15.179 80.0782 14.9309 82.2245 15.179C82.6548 15.2669 83.2251 16.1044 83.5828 16.6421H83.5776Z" fill="#231F20"/>
<path id="Vector_6" fill-rule="evenodd" clip-rule="evenodd" d="M32.4806 8.50409C35.7831 11.1976 40.0654 15.7834 39.5314 21.0619C38.8885 25.2393 34.4507 28.3774 30.692 29.3752C27.0422 30.4454 22.4644 30.3368 18.742 29.4838C18.4931 30.1611 18.2391 30.9831 17.4562 31.2674C16.9534 31.4432 16.3105 31.3398 15.9165 31.0193C14.807 29.9853 15.7039 27.9845 14.0916 27.3434C10.9446 26.0251 7.54368 23.4194 5.93133 20.2089C5.71877 19.5678 5.96763 18.9267 6.36164 18.4252C8.82941 16.4607 11.9452 15.68 15.0559 15.0699C15.2321 15.1423 15.1647 14.889 15.3047 14.8218C15.4862 12.6814 15.5536 10.5049 16.2327 8.57647C16.3883 8.30763 16.7719 8.21974 17.0208 8.40069C18.9908 9.89998 18.0576 12.7176 18.9182 14.7546C22.6769 14.9355 26.4304 15.1113 29.4011 17.2155C30.4017 18.0375 30.6453 19.604 30.3291 20.4984C30.0128 21.3928 28.9708 22.0339 28.0013 22.1063C27.3584 22.1063 26.1401 22.1683 26.2127 21.6772C26.2853 21.186 28.4005 20.3847 27.7524 19.7126C26.8193 18.751 22.1429 18.1771 19.2449 17.8204C18.8871 17.748 18.5605 17.8566 18.5605 18.2495C18.4879 20.9637 18.2754 23.9571 18.7368 26.5628C18.7731 26.7437 18.9856 26.9557 19.1671 26.9919C24.2841 27.8139 29.6862 27.3486 33.6938 24.4224C35.555 22.9231 36.1615 20.8189 35.8401 18.4976C34.2277 12.0403 27.4673 8.14736 21.92 5.65027C16.5179 3.29276 10.5454 2.08299 4.13753 2.40353C3.11621 2.47591 1.50386 2.82747 1.48831 3.18936C1.47276 3.55126 3.3184 3.43752 3.10066 4.11479C2.87773 4.79722 1.00616 4.39397 0.451431 4.22336C-0.0981148 4.05275 -0.0462709 3.25657 0.0988921 2.76026C1.49349 0.299355 5.38697 0.0977269 7.14448 0.00983757C16.8756 -0.238321 26.2853 3.4582 32.4806 8.50409ZM14.947 18.0685C12.4792 18.1047 9.86629 18.3529 7.57479 19.2111C7.10819 19.392 6.53791 19.8883 6.89563 20.4932C7.82364 21.7444 9.15603 22.768 10.4003 23.4918C11.6445 24.2156 13.2984 25.1359 14.8018 25.3478C15.1596 23.0265 15.1596 20.7466 15.1233 18.3529C14.9781 18.2805 15.1233 18.1409 14.9418 18.0685H14.947Z" fill="#231F20"/>
<path id="Vector_7" fill-rule="evenodd" clip-rule="evenodd" d="M88.9072 14.8224C88.7983 17.9244 85.9002 19.8528 85.9002 22.9599C86.0091 23.0685 86.0765 23.2081 86.2216 23.1357C88.5494 20.6024 90.8358 16.9989 94.2367 15.9288C95.1336 15.8564 95.9424 16.6319 96.2742 17.2109C97.4562 19.5632 97.1711 22.8824 95.5225 25.0227C93.822 27.1269 90.872 29.2311 87.5074 28.8744C86.1128 32.302 85.1433 35.9055 84.6093 39.6486C84.3242 40.3982 83.645 39.7209 83.2147 39.5762C80.3166 37.2911 82.6963 31.2474 82.8933 30.477C83.0903 29.7067 83.8628 27.8921 84.433 26.3721C83.0747 23.9474 83.9301 21.0212 85.0396 18.7722C85.9002 17.273 87.0771 15.7737 88.4769 14.6311C88.6531 14.6311 88.7983 14.6673 88.9072 14.8121V14.8224ZM94.667 18.674C94.2367 18.6016 94.0605 19.1755 93.7027 19.2789C92.0593 21.1349 90.4106 22.9909 89.5863 25.2037C90.6958 25.3484 91.6238 24.635 92.5933 24.2421C94.2367 23.2081 95.2788 21.4968 95.1699 19.5322C95.0973 19.2117 94.8122 18.9635 94.667 18.674Z" fill="#231F20"/>
</g>
<defs>
<clipPath id="clip0_20_874">
<rect width="97" height="40" fill="white"/>
</clipPath>
</defs>
</svg>
