<svg width="127" height="29" viewBox="0 0 127 29" fill="none" xmlns="http://www.w3.org/2000/svg">
<g id="hotstar-seeklogo 1" clip-path="url(#clip0_20_864)">
<g id="#010101fd">
<path id="Vector" d="M5.68703 0H6.10159C6.0835 2.83127 6.07363 5.66422 6.06869 8.49549C7.24163 7.79815 8.39648 6.90468 9.80137 6.8041C12.6326 6.35988 15.847 6.88289 17.8787 9.10399C19.0138 10.4283 19.6751 12.1599 19.6949 13.9217C19.8183 18.8316 19.7311 23.7465 19.7261 28.658C17.7619 28.6932 15.7977 28.6865 13.8351 28.6513C13.7331 24.189 13.9256 19.725 13.7841 15.2644C13.7561 13.9971 13.131 12.6846 12.014 12.0677C10.6124 11.4441 8.9081 11.4441 7.569 12.2387C6.73495 12.6812 5.98808 13.5663 6.11311 14.5872C5.9815 19.2741 6.17562 23.9644 6.07198 28.653C4.04854 28.6731 2.02345 28.6832 0 28.6664V2.11046C1.88526 1.3796 3.80506 0.744277 5.68703 0Z" fill="#010101"/>
<path id="Vector_2" d="M46.7794 3.07438C48.7519 2.28987 50.7342 1.50536 52.7823 0.953857C52.7988 2.9738 52.8152 4.99207 52.8218 7.01201C54.2958 7.04553 55.7698 7.03715 57.2438 7.07068C57.2586 8.67155 57.2569 10.2724 57.2553 11.8733C55.778 11.9068 54.3007 11.8984 52.8251 11.9353C52.8366 15.5863 52.6573 19.2456 52.8991 22.8899C52.9715 23.5705 53.7463 23.8186 54.2974 23.9711C55.6119 24.0918 56.9098 23.7415 58.0959 23.19C57.8788 24.9602 57.5366 26.7102 57.1944 28.4586C56.5397 28.6547 55.8816 28.8458 55.2154 29H51.889C49.553 28.6329 47.3355 26.9047 46.9308 24.4455C46.4455 20.3067 46.8683 16.121 46.7021 11.9621C45.8319 11.9236 44.9633 11.8867 44.0947 11.8481C44.0815 10.2657 44.0799 8.68328 44.0881 7.10085C44.9518 7.0623 45.8187 7.02542 46.684 6.98686C46.735 5.6827 46.7219 4.37854 46.7794 3.07438Z" fill="#010101"/>
<path id="Vector_3" d="M79.3964 2.97714C81.308 2.2513 83.2393 1.57743 85.1903 0.965576C85.2052 2.98217 85.2232 4.99875 85.2315 7.01534C86.7581 7.05725 88.2864 7.03043 89.8163 7.07066C89.8311 8.66985 89.8295 10.269 89.8278 11.8682C88.3061 11.9135 86.7828 11.9051 85.2644 11.9705C85.1953 15.4438 85.1032 18.9238 85.294 22.3937C85.3121 23.2905 86.1741 23.9896 87.0246 23.9812C88.2995 24.0717 89.4972 23.6342 90.6553 23.1598C90.3477 24.8914 90.1815 26.6582 89.6633 28.3429C89.1303 28.767 88.4114 28.8257 87.7846 29H84.4714C83.4301 28.7201 82.3641 28.4234 81.4791 27.7747C80.2798 26.8007 79.4063 25.3675 79.3783 23.7683C79.1167 19.8541 79.4375 15.9249 79.2302 12.0074C78.3748 11.9487 77.521 11.8917 76.6688 11.8381C76.6557 10.259 76.6507 8.67991 76.659 7.10084C77.521 7.06396 78.383 7.0254 79.2483 6.98685C79.3224 5.65084 79.3108 4.31147 79.3964 2.97714Z" fill="#010101"/>
<path id="Vector_4" d="M22.2941 15.836C22.837 10.8591 27.2885 6.62979 32.2452 6.70355C35.4317 6.45546 38.7564 7.6691 40.8325 10.1903C44.5043 14.4397 44.4105 21.5153 40.6778 25.6944C39.0114 27.5048 36.6935 28.5893 34.313 29H31.347C30.0128 28.705 28.654 28.3848 27.4712 27.659C25.4411 26.6197 23.9326 24.7238 23.0442 22.6217C22.0786 20.5196 22.1279 18.099 22.2941 15.836ZM32.4771 11.8263C29.6098 11.8045 28.0255 15.023 28.1226 17.6012C28.0074 19.9329 28.881 22.8061 31.2729 23.6225C32.9361 24.0767 34.9941 23.8705 36.1407 22.4122C37.6953 20.419 37.8072 17.6096 37.1968 15.2376C36.626 13.1774 34.6568 11.4743 32.4771 11.8263Z" fill="#010101"/>
<path id="Vector_5" d="M65.8146 6.89129C69.1772 6.46216 72.6993 6.96002 75.7032 8.60111C75.162 10.2288 74.6092 11.8531 73.9545 13.4372C72.9839 13.0433 72.0363 12.5907 71.0394 12.2722C69.3844 11.7358 67.6078 11.8263 65.9067 12.0074C65.3145 12.1029 64.6664 12.5589 64.6713 13.226C64.7881 13.8815 65.4576 14.1815 66.0038 14.3944C68.1194 15.1068 70.3715 15.2728 72.4887 15.9852C74.3871 16.7127 76.2082 18.1745 76.6804 20.2749C76.9929 22.2294 76.8449 24.4371 75.5337 26.0095C73.7867 28.0345 71.0345 28.6229 68.529 29H64.5841C62.4455 28.6161 60.2707 28.1971 58.3443 27.1259C58.8987 25.5753 59.6045 24.0901 60.3957 22.6519C62.2004 23.2788 64.0248 24.0583 65.9676 23.9929C67.333 23.9409 68.8662 24.1371 70.0458 23.2637C70.5245 22.8463 71.1233 22.1255 70.7515 21.4516C70.2777 20.652 69.3236 20.3402 68.4977 20.0519C65.8031 19.368 62.9193 19.0059 60.5421 17.4268C59.6406 16.7111 58.7852 15.7405 58.601 14.5553C58.5236 13.1556 58.4266 11.6201 59.2277 10.3964C60.5718 8.05464 63.3273 7.18296 65.8146 6.89129Z" fill="#010101"/>
<path id="Vector_6" d="M93.1065 9.24151C94.9868 7.86192 97.183 6.81926 99.5255 6.70192C102.103 6.61307 104.915 6.8092 107.096 8.37822C109.108 9.64382 110.327 12.0326 110.345 14.4246C110.459 19.1635 110.37 23.9075 110.373 28.6497C108.391 28.7101 106.409 28.6832 104.428 28.6229C104.374 28.3681 104.263 27.8585 104.209 27.6037C103.066 28.2055 101.88 28.7419 100.613 29.0001H97.6386C96.4114 28.7034 95.171 28.3631 94.1165 27.6322C91.7443 26.2426 90.3181 23.3945 90.6273 20.6186C90.6125 18.6523 91.463 16.6809 93.0571 15.5343C96.2963 13.1607 100.712 13.1574 104.397 14.3291C104.046 13.2814 103.41 12.2488 102.306 11.9186C100.091 11.1139 97.7768 12.046 95.7797 13.0266C94.8453 11.7979 93.9125 10.5624 93.1065 9.24151ZM97.5877 18.9808C96.2946 19.8927 96.288 22.0149 97.5893 22.9235C99.5963 24.3232 102.469 24.0315 104.313 22.4608C104.275 21.4014 104.295 20.3403 104.321 19.2826C102.46 17.7471 99.5881 17.6767 97.5877 18.9808Z" fill="#010101"/>
<path id="Vector_7" d="M119.964 7.8317C122.038 6.43869 124.886 6.22748 127 7.6406V7.77806C126.355 9.23309 125.793 10.7233 125.146 12.1767C123.996 11.9135 122.817 11.3586 121.634 11.7811C120.476 12.0191 119.635 13.2193 119.793 14.4229C119.66 19.1635 119.842 23.9074 119.75 28.6497C117.728 28.6933 115.708 28.6966 113.69 28.6547C113.655 21.455 113.667 14.2553 113.686 7.05557C114.891 7.02205 116.096 6.9969 117.306 7.01031C118.176 7.18297 119.563 6.69014 119.964 7.8317Z" fill="#010101"/>
</g>
</g>
<defs>
<clipPath id="clip0_20_864">
<rect width="127" height="29" fill="white"/>
</clipPath>
</defs>
</svg>
