<svg width="123" height="33" viewBox="0 0 123 33" fill="none" xmlns="http://www.w3.org/2000/svg">
<g id="Layer_1" clip-path="url(#clip0_20_846)">
<path id="Vector" d="M16.8641 0H11.685C11.6736 7.03951 11.6651 11.5997 11.6565 18.6392C9.43285 11.7676 7.20347 7.22169 4.97125 0H0V33C1.67701 32.7609 3.47646 32.5332 5.15632 32.314C5.16201 25.4168 5.16486 21.1754 5.17056 14.2783C7.4825 21.0673 8.90326 25.0724 11.2095 31.5255C13.0175 31.3205 15.002 31.0643 16.8128 30.8822C16.8299 20.5891 16.8499 10.296 16.8669 0.00284655" fill="#ED2517"/>
<path id="Vector_2" d="M36.2053 -8.31422e-05H21.861C21.841 10.1479 21.8211 20.2958 21.804 30.4466C26.6016 30.011 31.4049 29.6524 36.2138 29.3763C36.2138 27.8932 36.2195 25.7583 36.2224 24.2753C33.0961 24.466 30.1065 24.6681 26.9917 24.8759C26.9974 22.1489 27.0031 19.8916 27.0088 17.1617C29.2865 17.1219 31.6896 17.156 34.0158 17.1162C34.0158 15.6246 34.0215 13.484 34.0243 11.9924C31.7209 12.0323 29.2865 12.038 27.0173 12.0807C27.023 9.35082 27.0287 7.85638 27.0344 5.12654C28.4608 5.10947 29.8588 5.10662 31.254 5.10662C31.4988 5.10662 31.7437 5.10662 31.9885 5.10662H32.7203C33.8848 5.10662 35.0522 5.10662 36.2423 5.09523C36.2423 3.61218 36.2081 1.48012 36.211 -0.00292969" fill="#ED2517"/>
<path id="Vector_3" d="M55.5408 0.0227051C50.2763 0.0227051 44.8324 0.0227051 39.5679 0.0227051C39.5679 1.49722 39.5622 3.62074 39.5593 5.09525C39.7871 5.09525 40.0177 5.09525 40.2455 5.09525C40.9402 5.09525 41.6321 5.10094 42.3268 5.10948C43.0187 5.11517 43.7134 5.12371 44.4081 5.12371C44.5847 5.12371 44.764 5.12371 44.9406 5.12371C44.9292 13.3047 44.9178 20.7797 44.9092 28.9607C46.6005 28.8981 48.4085 28.844 50.0969 28.8013C50.1054 20.6659 50.1111 13.2364 50.1197 5.10094C51.9049 5.09525 53.7499 5.08956 55.5351 5.08386C55.5351 3.63497 55.5351 1.47729 55.5351 0.0283982" fill="#ED2517"/>
<path id="Vector_4" d="M73.3046 0H58.9005C58.9005 9.55301 58.9005 19.106 58.8976 28.6562C59.4557 28.6562 60.0166 28.6533 60.5832 28.6533C61.7363 28.6533 62.8951 28.6562 64.0283 28.6676C64.0283 24.6141 64.0283 20.9136 64.0255 16.8601C64.3074 16.8601 64.5949 16.8601 64.8825 16.8601C65.5516 16.8601 66.2321 16.8601 66.9154 16.8544C67.5988 16.8544 68.2849 16.8487 68.9654 16.8487C69.6459 16.8487 70.3606 16.8487 71.041 16.8601C71.041 15.4055 71.041 13.245 71.0382 11.7904C70.3976 11.7847 69.7427 11.7819 69.0793 11.7819C68.3704 11.7819 67.6557 11.7819 66.941 11.7875C66.2292 11.7875 65.5203 11.7932 64.8227 11.7932C64.5551 11.7932 64.2903 11.7932 64.0283 11.7932C64.0283 9.1858 64.0283 7.71698 64.0283 5.10955C64.5921 5.10955 65.153 5.10955 65.7139 5.10955C66.2748 5.10955 66.8499 5.10955 67.4137 5.10955C67.986 5.10955 68.5554 5.10955 69.1277 5.10955C70.52 5.10955 71.9123 5.10955 73.316 5.11809C73.316 3.66066 73.3131 1.45458 73.3103 0" fill="#ED2517"/>
<path id="Vector_5" d="M76.6671 0.0227051C76.6785 9.6668 76.633 19.3109 76.6472 28.9578C81.2512 29.1286 86.0914 29.3165 90.6897 29.6325C90.6897 28.1494 90.684 26.0145 90.6812 24.5315C87.7713 24.3607 84.739 24.1557 81.8263 24.0333C81.8121 15.7726 81.8576 8.28053 81.8462 0.0227051C80.1607 0.0227051 78.3555 0.0227051 76.6671 0.0227051Z" fill="#ED2517"/>
<path id="Vector_6" d="M94.9378 0.0227051C94.9577 9.997 94.9776 19.9713 94.9976 29.9456C96.686 30.0765 98.4313 30.216 100.117 30.3669C100.123 20.2588 100.137 10.1393 100.117 0.0255516C98.4313 0.0255516 96.6262 0.0255516 94.9378 0.0255516" fill="#ED2517"/>
<path id="Vector_7" d="M104.556 0.0255516C106.626 5.06963 108.522 10.1251 110.623 15.4823C108.436 20.626 106.213 25.7384 104.029 30.6715C105.837 30.8508 107.708 31.1098 109.516 31.3119C110.811 28.1323 111.99 25.6872 113.288 22.4222C114.584 25.8978 115.762 28.5849 117.052 32.1744C118.857 32.4078 121.195 32.7437 122.997 32.9999C120.813 27.1617 118.425 21.0843 116.229 15.5677C118.416 10.387 120.648 5.44253 122.92 0.0255516C121.055 0.0255516 119.131 0.0255516 117.266 0.0255516C115.865 3.37309 114.9 5.52508 113.556 8.71036C112.303 5.39414 111.463 3.24784 110.21 0.0227051C108.345 0.0227051 106.421 0.0227051 104.556 0.0227051" fill="#ED2517"/>
</g>
<defs>
<clipPath id="clip0_20_846">
<rect width="123" height="33" fill="white"/>
</clipPath>
</defs>
</svg>
